<svg xmlns="http://www.w3.org/2000/svg" width="758" height="722" overflow="hidden"><defs><clipPath id="a"><path d="M-1 17h758v722H-1z"/></clipPath></defs><g fill="#004098" fill-rule="evenodd" clip-path="url(#a)" transform="translate(1 -17)"><path d="m744.565 355.029-173.833-166.67c-28.654 34.785-56.635 71.269-56.635 71.269-36.388 53.003-74.292 63.609-74.292 63.609-71.255 15.14-130.395 0-130.395 0 42.708-8.262 169.255-171.528 192.048-201.302l-98.047-94.014s-19.703-24.225-46.994 3.033L192.658 177.846s47-1.513 65.193 6.066c0 0 29.319 9.086 45.499 31.799 0 0 22.739 43.917 40.94 43.917 0 0 12.133 25.745-48.535 27.259 0 0-37.904-3.034-51.545-46.938 0 0-10.613-48.477-62.158-53.004L7.667 358.076s-13.635 11.608-4.538 19.685h441.215s12.127-49.983 40.94-15.152c0 0 15.163-27.252 33.364-3.033 0 0 10.599-51.491 46.994-13.613 0 0 21.224-56.043 48.515-28.778 0 0 16.679 6.059 22.739 39.371 0 0 25.776-36.352 39.425 21.212 0 0-327.506 6.053-562.513 119.62l87.933 86.328s309.312-152.951 498.834-187.782c0 0-236.529 89.341-418.476 263.498l68.238 66.636s24.261 28.765 57.612-3.027L749.097 397.44c.013 0 18.208-28.779-4.532-42.411Z"/><path d="M506.165 117.349c77.169-89.428 218.836-39.4 218.836-39.4-28.747 1.515-96.839 50.001-96.839 50.001s-31.778 28.228-55.988 60.051L502 122.258l4.165-4.909Z"/></g></svg>